<?xml version="1.0" standalone="no"?>
<!DOCTYPE svg PUBLIC "-//W3C//DTD SVG 20010904//EN"
 "http://www.w3.org/TR/2001/REC-SVG-20010904/DTD/svg10.dtd">
<svg version="1.0" xmlns="http://www.w3.org/2000/svg"
 width="958.000000pt" height="626.000000pt" viewBox="0 0 958.000000 626.000000"
 preserveAspectRatio="xMidYMid meet">

<g transform="translate(0.000000,626.000000) scale(0.100000,-0.100000)"
fill="#000000" stroke="none">
<path d="M0 3130 l0 -3130 4790 0 4790 0 0 3130 0 3130 -4790 0 -4790 0 0
-3130z m3575 1305 c205 -54 366 -216 420 -422 19 -74 19 -213 0 -287 -54 -206
-239 -383 -443 -425 -178 -37 -363 12 -505 133 l-67 57 0 -296 0 -295 -27 -6
c-60 -15 -58 -28 -61 448 l-2 435 25 11 c45 21 65 1 65 -62 0 -45 6 -62 39
-112 53 -82 114 -136 196 -178 188 -95 415 -58 564 94 188 191 187 495 -3 684
-122 123 -299 173 -459 131 -102 -26 -148 -55 -235 -142 -85 -86 -112 -99
-135 -62 -18 29 3 70 76 143 76 76 158 123 258 150 72 20 220 20 294 1z m1426
-1 c191 -56 340 -202 405 -394 29 -85 26 -253 -5 -348 -74 -225 -275 -383
-508 -399 -108 -8 -188 9 -293 59 -67 32 -101 57 -157 114 l-73 74 0 -324 c0
-282 -2 -327 -16 -340 -19 -19 -48 -21 -63 -3 -16 20 -16 1066 0 1133 24 101
77 192 158 273 122 123 232 169 402 170 60 1 115 -5 150 -15z m1165 -1 c67
-22 127 -65 173 -122 72 -92 77 -143 15 -149 -25 -2 -32 3 -51 36 -36 64 -73
101 -127 130 -43 23 -64 27 -131 27 -71 0 -86 -4 -135 -31 -67 -38 -125 -110
-141 -177 -25 -104 12 -222 91 -289 46 -40 54 -80 20 -98 -29 -16 -49 -7 -104
47 -203 198 -112 549 164 634 46 14 174 10 226 -8z m95 -731 c65 -42 136 -124
169 -195 143 -306 -78 -658 -414 -659 -138 0 -236 40 -332 136 -61 61 -104
129 -104 164 0 28 34 55 59 47 12 -4 33 -29 47 -57 33 -66 99 -128 171 -164
51 -24 70 -28 153 -28 82 -1 103 3 150 25 280 131 298 498 33 663 -47 29 -58
66 -25 85 27 16 45 13 93 -17z m-1273 -1366 c3 -115 -9 -146 -58 -146 -23 0
-30 5 -30 19 0 10 7 21 15 25 12 4 15 25 15 99 0 52 3 97 7 101 4 4 16 6 28 4
18 -3 20 -11 23 -102z m193 14 c-1 -85 7 -118 28 -106 7 5 11 43 11 100 0 93
0 94 25 94 l25 0 0 -102 c0 -123 -9 -141 -70 -141 -61 0 -70 18 -70 135 0 53
3 100 7 104 4 4 16 6 27 4 17 -3 19 -11 17 -88z m277 78 c5 -7 16 -31 23 -52
l14 -40 5 50 c4 41 8 49 25 49 19 0 20 -8 23 -117 3 -117 2 -118 -20 -118 -19
0 -27 10 -43 53 l-20 52 -3 -53 c-3 -48 -5 -53 -25 -50 -21 3 -22 9 -25 112
-3 83 -1 111 10 117 18 12 24 11 36 -3z m290 -111 l3 -118 -28 3 -28 3 -3 104
c-3 121 0 134 30 129 22 -3 23 -7 26 -121z m256 112 c30 -14 36 -34 36 -122 0
-59 -3 -71 -25 -92 -29 -30 -64 -32 -96 -6 -21 17 -24 30 -27 99 -4 76 -2 82
22 106 27 28 52 32 90 15z m309 -20 c21 -26 22 -63 2 -83 -14 -14 -14 -21 0
-68 8 -28 15 -53 15 -55 0 -2 -13 -3 -29 -3 -25 0 -30 5 -43 53 l-16 52 -1
-52 c-1 -52 -2 -53 -31 -53 l-30 0 0 113 c0 63 3 117 8 121 15 16 106 -3 125
-25z"/>
<path d="M4745 4346 c-212 -53 -375 -256 -375 -467 0 -297 270 -536 552 -490
268 44 453 297 408 559 -46 276 -322 463 -585 398z"/>
<path d="M5955 2388 c-10 -24 -1 -153 10 -153 13 0 19 145 6 158 -7 7 -12 5
-16 -5z"/>
<path d="M6240 2371 c0 -21 5 -31 16 -31 11 0 14 8 12 27 -4 39 -28 42 -28 4z"/>
</g>
</svg>
